# xmcd
#
# Track frame offsets:
# 150
# 22370
# 40859
# 62820
# 79405
# 95720
# 110853
# 130910
# 143873
# 161800
# 180595
# 194384
# 212484
# 230828
# 245513
# 260419
# 272980
# 291070
# 304324
# 324336
# 345441
#
# Disc length: 4807 seconds
#
#
# Revision: 0
# Processed by: cddbd v1.5.2PL0 Copyright (c) Steve Scherf et al.
# Submitted via: FreeRIP 2.951 
#
DISCID=4c12c515
DTITLE=Akon - Akon
DYEAR=2007
DGENRE=Hip-Hop
TTITLE0=nm
TTITLE1=kj
TTITLE2=ou
TTITLE3=oz
TTITLE4=iu
TTITLE5=ui
TTITLE6=oi
TTITLE7=io
TTITLE8=uau
TTITLE9=uma
TTITLE10=fu
TTITLE11=ja
TTITLE12=po
TTITLE13=xa
TTITLE14=xi
TTITLE15=ht
TTITLE16=hp
TTITLE17=hm
TTITLE18=mm
TTITLE19=cdf
TTITLE20=adp
EXTD=
EXTT0=
EXTT1=
EXTT2=
EXTT3=
EXTT4=
EXTT5=
EXTT6=
EXTT7=
EXTT8=
EXTT9=
EXTT10=
EXTT11=
EXTT12=
EXTT13=
EXTT14=
EXTT15=
EXTT16=
EXTT17=
EXTT18=
EXTT19=
EXTT20=
PLAYORDER=
